<svg xmlns="http://www.w3.org/2000/svg" viewBox="0 0 240 140" fill="none" aria-hidden="true">
  <defs>
    <linearGradient id="fk-magic" x1="0%" y1="0%" x2="100%" y2="100%">
      <stop offset="0%" stop-color="#c4b5fd"/>
      <stop offset="100%" stop-color="#7c3aed"/>
    </linearGradient>
    <linearGradient id="fk-glow" x1="50%" y1="0%" x2="50%" y2="100%">
      <stop offset="0%" stop-color="#ede9fe" stop-opacity="0.95"/>
      <stop offset="100%" stop-color="#f5f3ff" stop-opacity="0.35"/>
    </linearGradient>
    <linearGradient id="fk-dice" x1="0%" y1="0%" x2="100%" y2="100%">
      <stop offset="0%" stop-color="#e9d5ff"/>
      <stop offset="100%" stop-color="#a78bfa"/>
    </linearGradient>
  </defs>
  <ellipse cx="120" cy="78" rx="108" ry="52" fill="url(#fk-glow)"/>
  <!-- cauldron / pot -->
  <path d="M88 58h64c4 0 8 4 8 10v4c0 22-16 38-40 38s-40-16-40-38v-4c0-6 4-10 8-10z" fill="url(#fk-magic)"/>
  <ellipse cx="120" cy="58" rx="32" ry="8" fill="#a78bfa" opacity="0.4"/>
  <path d="M96 72h48c-2 12-12 20-24 20s-22-8-24-20z" fill="#5b21b6" opacity="0.2"/>
  <!-- sparkles -->
  <path d="M168 44l3 8 8 3-8 3-3 8-3-8-8-3 8-3z" fill="#c4b5fd"/>
  <path d="M52 52l2 5 5 2-5 2-2 5-2-5-5-2 5-2z" fill="#ddd6fe"/>
  <path d="M188 72l1.5 4 4 1.5-4 1.5-1.5 4-1.5-4-4-1.5 4-1.5z" fill="#e9d5ff"/>
  <!-- dice -->
  <rect x="58" y="88" width="28" height="28" rx="6" transform="rotate(-12 72 102)" fill="url(#fk-dice)" stroke="#c4b5fd" stroke-width="1.5"/>
  <circle cx="68" cy="98" r="2.5" fill="#7c3aed"/>
  <circle cx="76" cy="106" r="2.5" fill="#7c3aed"/>
  <circle cx="72" cy="102" r="2.5" fill="#7c3aed"/>
  <rect x="154" y="84" width="28" height="28" rx="6" transform="rotate(10 168 98)" fill="url(#fk-dice)" stroke="#c4b5fd" stroke-width="1.5"/>
  <circle cx="164" cy="94" r="2.5" fill="#7c3aed"/>
  <circle cx="172" cy="102" r="2.5" fill="#7c3aed"/>
  <!-- steam / mystic lines -->
  <path d="M108 38c4-8 2-14-2-18" stroke="#c4b5fd" stroke-width="2.5" stroke-linecap="round" opacity="0.7"/>
  <path d="M120 34c6-10 2-16-2-20" stroke="#a78bfa" stroke-width="2.5" stroke-linecap="round" opacity="0.65"/>
  <path d="M132 38c4-8 2-14-2-18" stroke="#c4b5fd" stroke-width="2.5" stroke-linecap="round" opacity="0.7"/>
</svg>
